<control> default_path=Sustain\
<region> sample=2_Db.wav pitch_keycenter=c#2 hikey=d#2
<region> sample=2_G.wav pitch_keycenter=g2 lokey=e2 hikey=g#2
<region> sample=2_B.wav pitch_keycenter=b2 lokey=a2 hikey=c3
<region> sample=3_Eb.wav pitch_keycenter=d#3 lokey=c#3 hikey=f3
<region> sample=3_A.wav pitch_keycenter=a3 lokey=f#3 hikey=b3
<region> sample=4_Eb.wav pitch_keycenter=d#4 lokey=c4 hikey=e4
<region> sample=4_G.wav pitch_keycenter=g4 lokey=f4 hikey=g#4
<region> sample=4_Bb.wav pitch_keycenter=a#4 lokey=a4